<?xml version="1.0" encoding="UTF-8" standalone="no"?>
<!DOCTYPE svg PUBLIC "-//W3C//DTD SVG 1.1//EN"
 "http://www.w3.org/Graphics/SVG/1.1/DTD/svg11.dtd">
<!-- Generated by graphviz version 2.42.4 (0)
 -->
<!-- Title: UML Pages: 1 -->
<svg width="2038pt" height="1069pt"
 viewBox="0.00 0.00 2038.00 1069.00" xmlns="http://www.w3.org/2000/svg" xmlns:xlink="http://www.w3.org/1999/xlink">
<g id="graph0" class="graph" transform="scale(1 1) rotate(0) translate(18 1051)">
<title>UML</title>
<polygon fill="white" stroke="transparent" points="-18,18 -18,-1051 2020,-1051 2020,18 -18,18"/>
<!-- Persoana -->
<g id="node1" class="node">
<title>Persoana</title>
<path fill="#f7fbff" stroke="#2c5e8a" d="M326.5,-920.5C326.5,-920.5 406.5,-920.5 406.5,-920.5 412.5,-920.5 418.5,-926.5 418.5,-932.5 418.5,-932.5 418.5,-1020.5 418.5,-1020.5 418.5,-1026.5 412.5,-1032.5 406.5,-1032.5 406.5,-1032.5 326.5,-1032.5 326.5,-1032.5 320.5,-1032.5 314.5,-1026.5 314.5,-1020.5 314.5,-1020.5 314.5,-932.5 314.5,-932.5 314.5,-926.5 320.5,-920.5 326.5,-920.5"/>
<text text-anchor="middle" x="366.5" y="-1020.5" font-family="Arial" font-size="10.00">Persoana</text>
<polyline fill="none" stroke="#2c5e8a" points="314.5,-1013.5 418.5,-1013.5 "/>
<text text-anchor="start" x="322.5" y="-1001.5" font-family="Arial" font-size="10.00"># id : int</text>
<text text-anchor="start" x="322.5" y="-990.5" font-family="Arial" font-size="10.00"># nume : string</text>
<text text-anchor="start" x="322.5" y="-979.5" font-family="Arial" font-size="10.00"># prenume : string</text>
<text text-anchor="start" x="322.5" y="-968.5" font-family="Arial" font-size="10.00"># varsta : int</text>
<text text-anchor="start" x="322.5" y="-957.5" font-family="Arial" font-size="10.00"># telefon : string</text>
<polyline fill="none" stroke="#2c5e8a" points="314.5,-950.5 418.5,-950.5 "/>
<text text-anchor="start" x="322.5" y="-938.5" font-family="Arial" font-size="10.00">+ afisare() : void</text>
<text text-anchor="start" x="322.5" y="-927.5" font-family="Arial" font-size="10.00">+ getNume() : string</text>
</g>
<!-- Pacient -->
<g id="node2" class="node">
<title>Pacient</title>
<path fill="#f7fbff" stroke="#2c5e8a" d="M477,-563.5C477,-563.5 560,-563.5 560,-563.5 566,-563.5 572,-569.5 572,-575.5 572,-575.5 572,-674.5 572,-674.5 572,-680.5 566,-686.5 560,-686.5 560,-686.5 477,-686.5 477,-686.5 471,-686.5 465,-680.5 465,-674.5 465,-674.5 465,-575.5 465,-575.5 465,-569.5 471,-563.5 477,-563.5"/>
<text text-anchor="middle" x="518.5" y="-674.5" font-family="Arial" font-size="10.00">Pacient</text>
<polyline fill="none" stroke="#2c5e8a" points="465,-667.5 572,-667.5 "/>
<text text-anchor="start" x="473" y="-655.5" font-family="Arial" font-size="10.00">&#45; diagnostic : string</text>
<text text-anchor="start" x="473" y="-644.5" font-family="Arial" font-size="10.00">&#45; grupaSange : string</text>
<text text-anchor="start" x="473" y="-633.5" font-family="Arial" font-size="10.00">&#45; adresa : string</text>
<text text-anchor="start" x="473" y="-622.5" font-family="Arial" font-size="10.00">&#45; internat : bool</text>
<text text-anchor="start" x="473" y="-611.5" font-family="Arial" font-size="10.00">&#45; alergii : string</text>
<text text-anchor="start" x="473" y="-600.5" font-family="Arial" font-size="10.00">&#45; prioritate : string</text>
<polyline fill="none" stroke="#2c5e8a" points="465,-593.5 572,-593.5 "/>
<text text-anchor="start" x="473" y="-581.5" font-family="Arial" font-size="10.00">+ seteazaPrioritate()</text>
<text text-anchor="start" x="473" y="-570.5" font-family="Arial" font-size="10.00">+ afisare() : void</text>
</g>
<!-- Persoana&#45;&gt;Pacient -->
<g id="edge1" class="edge">
<title>Persoana&#45;&gt;Pacient</title>
<path fill="none" stroke="#333333" d="M418.69,-925C445.56,-925 472.75,-925 472.75,-925 472.75,-925 472.75,-694.8 472.75,-694.8"/>
<polygon fill="none" stroke="#333333" points="475.55,-694.8 472.75,-686.8 469.95,-694.8 475.55,-694.8"/>
<text text-anchor="middle" x="420" y="-801.3" font-family="Arial" font-size="9.00">moștenire</text>
</g>
<!-- Angajat -->
<g id="node3" class="node">
<title>Angajat</title>
<path fill="#f7fbff" stroke="#2c5e8a" d="M188,-758.5C188,-758.5 307,-758.5 307,-758.5 313,-758.5 319,-764.5 319,-770.5 319,-770.5 319,-836.5 319,-836.5 319,-842.5 313,-848.5 307,-848.5 307,-848.5 188,-848.5 188,-848.5 182,-848.5 176,-842.5 176,-836.5 176,-836.5 176,-770.5 176,-770.5 176,-764.5 182,-758.5 188,-758.5"/>
<text text-anchor="middle" x="247.5" y="-836.5" font-family="Arial" font-size="10.00">Angajat</text>
<polyline fill="none" stroke="#2c5e8a" points="176,-829.5 319,-829.5 "/>
<text text-anchor="start" x="184" y="-817.5" font-family="Arial" font-size="10.00"># salariu : double</text>
<text text-anchor="start" x="184" y="-806.5" font-family="Arial" font-size="10.00"># sectie : string</text>
<text text-anchor="start" x="184" y="-795.5" font-family="Arial" font-size="10.00"># functie : string</text>
<polyline fill="none" stroke="#2c5e8a" points="176,-788.5 319,-788.5 "/>
<text text-anchor="start" x="184" y="-776.5" font-family="Arial" font-size="10.00">+ calculeazaBonus() : double</text>
<text text-anchor="start" x="184" y="-765.5" font-family="Arial" font-size="10.00">+ afisare() : void</text>
</g>
<!-- Persoana&#45;&gt;Angajat -->
<g id="edge2" class="edge">
<title>Persoana&#45;&gt;Angajat</title>
<path fill="none" stroke="#333333" d="M321.33,-920.17C321.33,-874.62 321.33,-818 321.33,-818 321.33,-818 321.12,-818 321.12,-818"/>
<polygon fill="none" stroke="#333333" points="327.2,-815.2 319.2,-818 327.2,-820.8 327.2,-815.2"/>
<text text-anchor="middle" x="311" y="-887.8" font-family="Arial" font-size="9.00">moștenire</text>
</g>
<!-- Programare -->
<g id="node6" class="node">
<title>Programare</title>
<path fill="#f7fbff" stroke="#2c5e8a" d="M22.5,-374C22.5,-374 148.5,-374 148.5,-374 154.5,-374 160.5,-380 160.5,-386 160.5,-386 160.5,-485 160.5,-485 160.5,-491 154.5,-497 148.5,-497 148.5,-497 22.5,-497 22.5,-497 16.5,-497 10.5,-491 10.5,-485 10.5,-485 10.5,-386 10.5,-386 10.5,-380 16.5,-374 22.5,-374"/>
<text text-anchor="middle" x="85.5" y="-485" font-family="Arial" font-size="10.00">Programare</text>
<polyline fill="none" stroke="#2c5e8a" points="10.5,-478 160.5,-478 "/>
<text text-anchor="start" x="18.5" y="-466" font-family="Arial" font-size="10.00">&#45; idProgramare : int</text>
<text text-anchor="start" x="18.5" y="-455" font-family="Arial" font-size="10.00">&#45; idPacient : int</text>
<text text-anchor="start" x="18.5" y="-444" font-family="Arial" font-size="10.00">&#45; idMedic : int</text>
<text text-anchor="start" x="18.5" y="-433" font-family="Arial" font-size="10.00">&#45; data : string</text>
<text text-anchor="start" x="18.5" y="-422" font-family="Arial" font-size="10.00">&#45; ora : string</text>
<text text-anchor="start" x="18.5" y="-411" font-family="Arial" font-size="10.00">&#45; status : string</text>
<polyline fill="none" stroke="#2c5e8a" points="10.5,-404 160.5,-404 "/>
<text text-anchor="start" x="18.5" y="-392" font-family="Arial" font-size="10.00">+ valideazaProgramare() : bool</text>
<text text-anchor="start" x="18.5" y="-381" font-family="Arial" font-size="10.00">+ areConflictOra() : bool</text>
</g>
<!-- Pacient&#45;&gt;Programare -->
<g id="edge9" class="edge">
<title>Pacient&#45;&gt;Programare</title>
<path fill="none" stroke="#333333" d="M464.82,-574C363.61,-574 154.67,-574 154.67,-574 154.67,-574 154.67,-505.05 154.67,-505.05"/>
<polygon fill="#333333" stroke="#333333" points="154.67,-497.05 158.27,-505.05 154.67,-501.05 154.67,-505.05 154.67,-505.05 154.67,-505.05 154.67,-501.05 151.07,-505.05 154.67,-497.05 154.67,-497.05"/>
<text text-anchor="middle" x="198" y="-530.8" font-family="Arial" font-size="9.00">1..* programări</text>
</g>
<!-- Internare -->
<g id="node7" class="node">
<title>Internare</title>
<path fill="#f7fbff" stroke="#2c5e8a" d="M315,-184.5C315,-184.5 466,-184.5 466,-184.5 472,-184.5 478,-190.5 478,-196.5 478,-196.5 478,-295.5 478,-295.5 478,-301.5 472,-307.5 466,-307.5 466,-307.5 315,-307.5 315,-307.5 309,-307.5 303,-301.5 303,-295.5 303,-295.5 303,-196.5 303,-196.5 303,-190.5 309,-184.5 315,-184.5"/>
<text text-anchor="middle" x="390.5" y="-295.5" font-family="Arial" font-size="10.00">Internare</text>
<polyline fill="none" stroke="#2c5e8a" points="303,-288.5 478,-288.5 "/>
<text text-anchor="start" x="311" y="-276.5" font-family="Arial" font-size="10.00">&#45; idInternare : int</text>
<text text-anchor="start" x="311" y="-265.5" font-family="Arial" font-size="10.00">&#45; idPacient : int</text>
<text text-anchor="start" x="311" y="-254.5" font-family="Arial" font-size="10.00">&#45; sectie : string</text>
<text text-anchor="start" x="311" y="-243.5" font-family="Arial" font-size="10.00">&#45; numarZile : int</text>
<text text-anchor="start" x="311" y="-232.5" font-family="Arial" font-size="10.00">&#45; costPeZi : double</text>
<text text-anchor="start" x="311" y="-221.5" font-family="Arial" font-size="10.00">&#45; status : string</text>
<polyline fill="none" stroke="#2c5e8a" points="303,-214.5 478,-214.5 "/>
<text text-anchor="start" x="311" y="-202.5" font-family="Arial" font-size="10.00">+ esteActiva() : bool</text>
<text text-anchor="start" x="311" y="-191.5" font-family="Arial" font-size="10.00">+ calculeazaCostInternare() : double</text>
</g>
<!-- Pacient&#45;&gt;Internare -->
<g id="edge11" class="edge">
<title>Pacient&#45;&gt;Internare</title>
<path fill="none" stroke="#333333" d="M464.99,-568C447.87,-568 433.25,-568 433.25,-568 433.25,-568 433.25,-315.7 433.25,-315.7"/>
<polygon fill="#333333" stroke="#333333" points="433.25,-307.7 436.85,-315.7 433.25,-311.7 433.25,-315.7 433.25,-315.7 433.25,-315.7 433.25,-311.7 429.65,-315.7 433.25,-307.7 433.25,-307.7"/>
<text text-anchor="middle" x="382.5" y="-433.3" font-family="Arial" font-size="9.00">0..* internări</text>
</g>
<!-- Reteta -->
<g id="node8" class="node">
<title>Reteta</title>
<path fill="#f7fbff" stroke="#2c5e8a" d="M797,-184.5C797,-184.5 900,-184.5 900,-184.5 906,-184.5 912,-190.5 912,-196.5 912,-196.5 912,-295.5 912,-295.5 912,-301.5 906,-307.5 900,-307.5 900,-307.5 797,-307.5 797,-307.5 791,-307.5 785,-301.5 785,-295.5 785,-295.5 785,-196.5 785,-196.5 785,-190.5 791,-184.5 797,-184.5"/>
<text text-anchor="middle" x="848.5" y="-295.5" font-family="Arial" font-size="10.00">Reteta</text>
<polyline fill="none" stroke="#2c5e8a" points="785,-288.5 912,-288.5 "/>
<text text-anchor="start" x="793" y="-276.5" font-family="Arial" font-size="10.00">&#45; idReteta : int</text>
<text text-anchor="start" x="793" y="-265.5" font-family="Arial" font-size="10.00">&#45; idPacient : int</text>
<text text-anchor="start" x="793" y="-254.5" font-family="Arial" font-size="10.00">&#45; idMedic : int</text>
<text text-anchor="start" x="793" y="-243.5" font-family="Arial" font-size="10.00">&#45; medicamente : string</text>
<text text-anchor="start" x="793" y="-232.5" font-family="Arial" font-size="10.00">&#45; dozaj : string</text>
<text text-anchor="start" x="793" y="-221.5" font-family="Arial" font-size="10.00">&#45; durataTratament : string</text>
<polyline fill="none" stroke="#2c5e8a" points="785,-214.5 912,-214.5 "/>
<text text-anchor="start" x="793" y="-202.5" font-family="Arial" font-size="10.00">+ emiteReteta()</text>
<text text-anchor="start" x="793" y="-191.5" font-family="Arial" font-size="10.00">+ exportReteteJson()</text>
</g>
<!-- Pacient&#45;&gt;Reteta -->
<g id="edge14" class="edge">
<title>Pacient&#45;&gt;Reteta</title>
<path fill="none" stroke="#333333" d="M572.21,-577C668.89,-577 862.25,-577 862.25,-577 862.25,-577 862.25,-315.87 862.25,-315.87"/>
<polygon fill="#333333" stroke="#333333" points="862.25,-307.87 865.85,-315.87 862.25,-311.87 862.25,-315.87 862.25,-315.87 862.25,-315.87 862.25,-311.87 858.65,-315.87 862.25,-307.87 862.25,-307.87"/>
<text text-anchor="middle" x="868.5" y="-433.3" font-family="Arial" font-size="9.00">0..* rețete</text>
</g>
<!-- Factura -->
<g id="node9" class="node">
<title>Factura</title>
<path fill="#f7fbff" stroke="#2c5e8a" d="M643,-368.5C643,-368.5 756,-368.5 756,-368.5 762,-368.5 768,-374.5 768,-380.5 768,-380.5 768,-490.5 768,-490.5 768,-496.5 762,-502.5 756,-502.5 756,-502.5 643,-502.5 643,-502.5 637,-502.5 631,-496.5 631,-490.5 631,-490.5 631,-380.5 631,-380.5 631,-374.5 637,-368.5 643,-368.5"/>
<text text-anchor="middle" x="699.5" y="-490.5" font-family="Arial" font-size="10.00">Factura</text>
<polyline fill="none" stroke="#2c5e8a" points="631,-483.5 768,-483.5 "/>
<text text-anchor="start" x="639" y="-471.5" font-family="Arial" font-size="10.00">&#45; idFactura : int</text>
<text text-anchor="start" x="639" y="-460.5" font-family="Arial" font-size="10.00">&#45; idPacient : int</text>
<text text-anchor="start" x="639" y="-449.5" font-family="Arial" font-size="10.00">&#45; costConsultatie : double</text>
<text text-anchor="start" x="639" y="-438.5" font-family="Arial" font-size="10.00">&#45; costInternare : double</text>
<text text-anchor="start" x="639" y="-427.5" font-family="Arial" font-size="10.00">&#45; costTratament : double</text>
<text text-anchor="start" x="639" y="-416.5" font-family="Arial" font-size="10.00">&#45; costMedicamente : double</text>
<text text-anchor="start" x="639" y="-405.5" font-family="Arial" font-size="10.00">&#45; reducere : double</text>
<text text-anchor="start" x="639" y="-394.5" font-family="Arial" font-size="10.00">&#45; total : double</text>
<polyline fill="none" stroke="#2c5e8a" points="631,-387.5 768,-387.5 "/>
<text text-anchor="start" x="639" y="-375.5" font-family="Arial" font-size="10.00">+ calculeazaTotal() : double</text>
</g>
<!-- Pacient&#45;&gt;Factura -->
<g id="edge17" class="edge">
<title>Pacient&#45;&gt;Factura</title>
<path fill="none" stroke="#333333" d="M572.16,-570C611.6,-570 658.33,-570 658.33,-570 658.33,-570 658.33,-510.75 658.33,-510.75"/>
<polygon fill="#333333" stroke="#333333" points="658.33,-502.75 661.93,-510.75 658.33,-506.75 658.33,-510.75 658.33,-510.75 658.33,-510.75 658.33,-506.75 654.73,-510.75 658.33,-502.75 658.33,-502.75"/>
<text text-anchor="middle" x="614" y="-530.8" font-family="Arial" font-size="9.00">0..* facturi</text>
</g>
<!-- Intrare -->
<g id="node14" class="node">
<title>Intrare</title>
<path fill="#f7fbff" stroke="#2c5e8a" d="M460,-379.5C460,-379.5 579,-379.5 579,-379.5 585,-379.5 591,-385.5 591,-391.5 591,-391.5 591,-479.5 591,-479.5 591,-485.5 585,-491.5 579,-491.5 579,-491.5 460,-491.5 460,-491.5 454,-491.5 448,-485.5 448,-479.5 448,-479.5 448,-391.5 448,-391.5 448,-385.5 454,-379.5 460,-379.5"/>
<text text-anchor="middle" x="519.5" y="-479.5" font-family="Arial" font-size="10.00">IntrareSpital</text>
<polyline fill="none" stroke="#2c5e8a" points="448,-472.5 591,-472.5 "/>
<text text-anchor="start" x="456" y="-460.5" font-family="Arial" font-size="10.00">&#45; idIntrare : int</text>
<text text-anchor="start" x="456" y="-449.5" font-family="Arial" font-size="10.00">&#45; idPacient : int</text>
<text text-anchor="start" x="456" y="-438.5" font-family="Arial" font-size="10.00">&#45; modIntrare : string</text>
<text text-anchor="start" x="456" y="-427.5" font-family="Arial" font-size="10.00">&#45; motivPrezentare : string</text>
<text text-anchor="start" x="456" y="-416.5" font-family="Arial" font-size="10.00">&#45; nivelUrgenta : string</text>
<text text-anchor="start" x="456" y="-405.5" font-family="Arial" font-size="10.00">&#45; status : string</text>
<polyline fill="none" stroke="#2c5e8a" points="448,-398.5 591,-398.5 "/>
<text text-anchor="start" x="456" y="-386.5" font-family="Arial" font-size="10.00">+ actualizeazaStatusIntrare()</text>
</g>
<!-- Pacient&#45;&gt;Intrare -->
<g id="edge13" class="edge">
<title>Pacient&#45;&gt;Intrare</title>
<path fill="none" stroke="#333333" d="M518.5,-563.47C518.5,-563.47 518.5,-499.59 518.5,-499.59"/>
<polygon fill="#333333" stroke="#333333" points="518.5,-491.59 522.1,-499.59 518.5,-495.59 518.5,-499.59 518.5,-499.59 518.5,-499.59 518.5,-495.59 514.9,-499.59 518.5,-491.59 518.5,-491.59"/>
<text text-anchor="middle" x="528.5" y="-530.8" font-family="Arial" font-size="9.00">0..* intrări</text>
</g>
<!-- Medic -->
<g id="node4" class="node">
<title>Medic</title>
<path fill="#f7fbff" stroke="#2c5e8a" d="M195,-580C195,-580 314,-580 314,-580 320,-580 326,-586 326,-592 326,-592 326,-658 326,-658 326,-664 320,-670 314,-670 314,-670 195,-670 195,-670 189,-670 183,-664 183,-658 183,-658 183,-592 183,-592 183,-586 189,-580 195,-580"/>
<text text-anchor="middle" x="254.5" y="-658" font-family="Arial" font-size="10.00">Medic</text>
<polyline fill="none" stroke="#2c5e8a" points="183,-651 326,-651 "/>
<text text-anchor="start" x="191" y="-639" font-family="Arial" font-size="10.00">&#45; specializare : string</text>
<text text-anchor="start" x="191" y="-628" font-family="Arial" font-size="10.00">&#45; codParafa : string</text>
<text text-anchor="start" x="191" y="-617" font-family="Arial" font-size="10.00">&#45; numarConsultatii : int</text>
<polyline fill="none" stroke="#2c5e8a" points="183,-610 326,-610 "/>
<text text-anchor="start" x="191" y="-598" font-family="Arial" font-size="10.00">+ calculeazaBonus() : double</text>
<text text-anchor="start" x="191" y="-587" font-family="Arial" font-size="10.00">+ afisare() : void</text>
</g>
<!-- Angajat&#45;&gt;Medic -->
<g id="edge3" class="edge">
<title>Angajat&#45;&gt;Medic</title>
<path fill="none" stroke="#333333" d="M251,-758.46C251,-758.46 251,-678.03 251,-678.03"/>
<polygon fill="none" stroke="#333333" points="253.8,-678.03 251,-670.03 248.2,-678.03 253.8,-678.03"/>
</g>
<!-- Asistent -->
<g id="node5" class="node">
<title>Asistent</title>
<path fill="#f7fbff" stroke="#2c5e8a" d="M12,-585.5C12,-585.5 131,-585.5 131,-585.5 137,-585.5 143,-591.5 143,-597.5 143,-597.5 143,-652.5 143,-652.5 143,-658.5 137,-664.5 131,-664.5 131,-664.5 12,-664.5 12,-664.5 6,-664.5 0,-658.5 0,-652.5 0,-652.5 0,-597.5 0,-597.5 0,-591.5 6,-585.5 12,-585.5"/>
<text text-anchor="middle" x="71.5" y="-652.5" font-family="Arial" font-size="10.00">Asistent</text>
<polyline fill="none" stroke="#2c5e8a" points="0,-645.5 143,-645.5 "/>
<text text-anchor="start" x="8" y="-633.5" font-family="Arial" font-size="10.00">&#45; tura : string</text>
<text text-anchor="start" x="8" y="-622.5" font-family="Arial" font-size="10.00">&#45; aniExperienta : int</text>
<polyline fill="none" stroke="#2c5e8a" points="0,-615.5 143,-615.5 "/>
<text text-anchor="start" x="8" y="-603.5" font-family="Arial" font-size="10.00">+ calculeazaBonus() : double</text>
<text text-anchor="start" x="8" y="-592.5" font-family="Arial" font-size="10.00">+ afisare() : void</text>
</g>
<!-- Angajat&#45;&gt;Asistent -->
<g id="edge4" class="edge">
<title>Angajat&#45;&gt;Asistent</title>
<path fill="none" stroke="#333333" d="M179.5,-758.28C179.5,-709.27 179.5,-638 179.5,-638 179.5,-638 151.24,-638 151.24,-638"/>
<polygon fill="none" stroke="#333333" points="151.24,-635.2 143.24,-638 151.24,-640.8 151.24,-635.2"/>
</g>
<!-- Medic&#45;&gt;Programare -->
<g id="edge10" class="edge">
<title>Medic&#45;&gt;Programare</title>
<path fill="none" stroke="#333333" d="M182.85,-611C164,-611 148.83,-611 148.83,-611 148.83,-611 148.83,-505.37 148.83,-505.37"/>
<polygon fill="#333333" stroke="#333333" points="148.83,-497.37 152.43,-505.37 148.83,-501.37 148.83,-505.37 148.83,-505.37 148.83,-505.37 148.83,-501.37 145.23,-505.37 148.83,-497.37 148.83,-497.37"/>
<text text-anchor="middle" x="97" y="-530.8" font-family="Arial" font-size="9.00">1..* consultă</text>
</g>
<!-- Medic&#45;&gt;Reteta -->
<g id="edge15" class="edge">
<title>Medic&#45;&gt;Reteta</title>
<path fill="none" stroke="#333333" d="M314.5,-579.84C314.5,-499.02 314.5,-338 314.5,-338 314.5,-338 810.75,-338 810.75,-338 810.75,-338 810.75,-315.62 810.75,-315.62"/>
<polygon fill="#333333" stroke="#333333" points="810.75,-307.62 814.35,-315.62 810.75,-311.62 810.75,-315.62 810.75,-315.62 810.75,-315.62 810.75,-311.62 807.15,-315.62 810.75,-307.62 810.75,-307.62"/>
<text text-anchor="middle" x="266" y="-433.3" font-family="Arial" font-size="9.00">emite</text>
</g>
<!-- Sectie -->
<g id="node13" class="node">
<title>Sectie</title>
<path fill="#f7fbff" stroke="#2c5e8a" d="M329.5,-0.5C329.5,-0.5 451.5,-0.5 451.5,-0.5 457.5,-0.5 463.5,-6.5 463.5,-12.5 463.5,-12.5 463.5,-111.5 463.5,-111.5 463.5,-117.5 457.5,-123.5 451.5,-123.5 451.5,-123.5 329.5,-123.5 329.5,-123.5 323.5,-123.5 317.5,-117.5 317.5,-111.5 317.5,-111.5 317.5,-12.5 317.5,-12.5 317.5,-6.5 323.5,-0.5 329.5,-0.5"/>
<text text-anchor="middle" x="390.5" y="-111.5" font-family="Arial" font-size="10.00">Sectie</text>
<polyline fill="none" stroke="#2c5e8a" points="317.5,-104.5 463.5,-104.5 "/>
<text text-anchor="start" x="325.5" y="-92.5" font-family="Arial" font-size="10.00">&#45; idSectie : int</text>
<text text-anchor="start" x="325.5" y="-81.5" font-family="Arial" font-size="10.00">&#45; denumire : string</text>
<text text-anchor="start" x="325.5" y="-70.5" font-family="Arial" font-size="10.00">&#45; etaj : int</text>
<text text-anchor="start" x="325.5" y="-59.5" font-family="Arial" font-size="10.00">&#45; numarPaturiTotal : int</text>
<text text-anchor="start" x="325.5" y="-48.5" font-family="Arial" font-size="10.00">&#45; numarPaturiOcupate : int</text>
<polyline fill="none" stroke="#2c5e8a" points="317.5,-41.5 463.5,-41.5 "/>
<text text-anchor="start" x="325.5" y="-29.5" font-family="Arial" font-size="10.00">+ arePaturiDisponibile() : bool</text>
<text text-anchor="start" x="325.5" y="-18.5" font-family="Arial" font-size="10.00">+ ocupaPat()</text>
<text text-anchor="start" x="325.5" y="-7.5" font-family="Arial" font-size="10.00">+ elibereazaPat()</text>
</g>
<!-- Internare&#45;&gt;Sectie -->
<g id="edge12" class="edge">
<title>Internare&#45;&gt;Sectie</title>
<path fill="none" stroke="#333333" d="M390.5,-184.47C390.5,-184.47 390.5,-131.78 390.5,-131.78"/>
<polygon fill="#333333" stroke="#333333" points="390.5,-123.78 394.1,-131.78 390.5,-127.78 390.5,-131.78 390.5,-131.78 390.5,-131.78 390.5,-127.78 386.9,-131.78 390.5,-123.78 390.5,-123.78"/>
<text text-anchor="middle" x="410.5" y="-151.8" font-family="Arial" font-size="9.00">se face în</text>
</g>
<!-- Medicament -->
<g id="node10" class="node">
<title>Medicament</title>
<path fill="#f7fbff" stroke="#2c5e8a" d="M975.5,-0.5C975.5,-0.5 1125.5,-0.5 1125.5,-0.5 1131.5,-0.5 1137.5,-6.5 1137.5,-12.5 1137.5,-12.5 1137.5,-111.5 1137.5,-111.5 1137.5,-117.5 1131.5,-123.5 1125.5,-123.5 1125.5,-123.5 975.5,-123.5 975.5,-123.5 969.5,-123.5 963.5,-117.5 963.5,-111.5 963.5,-111.5 963.5,-12.5 963.5,-12.5 963.5,-6.5 969.5,-0.5 975.5,-0.5"/>
<text text-anchor="middle" x="1050.5" y="-111.5" font-family="Arial" font-size="10.00">Medicament</text>
<polyline fill="none" stroke="#2c5e8a" points="963.5,-104.5 1137.5,-104.5 "/>
<text text-anchor="start" x="971.5" y="-92.5" font-family="Arial" font-size="10.00">&#45; idMedicament : int</text>
<text text-anchor="start" x="971.5" y="-81.5" font-family="Arial" font-size="10.00">&#45; denumire : string</text>
<text text-anchor="start" x="971.5" y="-70.5" font-family="Arial" font-size="10.00">&#45; substantaActiva : string</text>
<text text-anchor="start" x="971.5" y="-59.5" font-family="Arial" font-size="10.00">&#45; pretUnitar : double</text>
<text text-anchor="start" x="971.5" y="-48.5" font-family="Arial" font-size="10.00">&#45; stoc : int</text>
<text text-anchor="start" x="971.5" y="-37.5" font-family="Arial" font-size="10.00">&#45; necesitaReteta : string</text>
<polyline fill="none" stroke="#2c5e8a" points="963.5,-30.5 1137.5,-30.5 "/>
<text text-anchor="start" x="971.5" y="-18.5" font-family="Arial" font-size="10.00">+ calculeazaCost(cantitate) : double</text>
<text text-anchor="start" x="971.5" y="-7.5" font-family="Arial" font-size="10.00">+ scadeStoc()</text>
</g>
<!-- Reteta&#45;&gt;Medicament -->
<g id="edge16" class="edge">
<title>Reteta&#45;&gt;Medicament</title>
<path fill="none" stroke="#333333" d="M912.14,-246C949.65,-246 989.83,-246 989.83,-246 989.83,-246 989.83,-131.53 989.83,-131.53"/>
<polygon fill="#333333" stroke="#333333" points="989.83,-123.53 993.43,-131.53 989.83,-127.53 989.83,-131.53 989.83,-131.53 989.83,-131.53 989.83,-127.53 986.23,-131.53 989.83,-123.53 989.83,-123.53"/>
<text text-anchor="middle" x="937" y="-151.8" font-family="Arial" font-size="9.00">conține</text>
</g>
<!-- Factura&#45;&gt;Internare -->
<g id="edge19" class="edge">
<title>Factura&#45;&gt;Internare</title>
<path fill="none" stroke="#333333" stroke-dasharray="5,2" d="M699.5,-368.42C699.5,-313.91 699.5,-246 699.5,-246 699.5,-246 486.22,-246 486.22,-246"/>
<polygon fill="#333333" stroke="#333333" points="478.22,-246 486.22,-242.4 482.22,-246 486.22,-246 486.22,-246 486.22,-246 482.22,-246 486.22,-249.6 478.22,-246 478.22,-246"/>
<text text-anchor="middle" x="467.5" y="-335.8" font-family="Arial" font-size="9.00">include cost internare</text>
</g>
<!-- Factura&#45;&gt;Reteta -->
<g id="edge18" class="edge">
<title>Factura&#45;&gt;Reteta</title>
<path fill="none" stroke="#333333" stroke-dasharray="5,2" d="M768.4,-435C802.52,-435 836.5,-435 836.5,-435 836.5,-435 836.5,-315.62 836.5,-315.62"/>
<polygon fill="#333333" stroke="#333333" points="836.5,-307.62 840.1,-315.62 836.5,-311.62 836.5,-315.62 836.5,-315.62 836.5,-315.62 836.5,-311.62 832.9,-315.62 836.5,-307.62 836.5,-307.62"/>
<text text-anchor="middle" x="761" y="-335.8" font-family="Arial" font-size="9.00">include cost medicamente</text>
</g>
<!-- Achizitie -->
<g id="node11" class="node">
<title>Achizitie</title>
<path fill="#f7fbff" stroke="#2c5e8a" d="M932.5,-747.5C932.5,-747.5 1030.5,-747.5 1030.5,-747.5 1036.5,-747.5 1042.5,-753.5 1042.5,-759.5 1042.5,-759.5 1042.5,-847.5 1042.5,-847.5 1042.5,-853.5 1036.5,-859.5 1030.5,-859.5 1030.5,-859.5 932.5,-859.5 932.5,-859.5 926.5,-859.5 920.5,-853.5 920.5,-847.5 920.5,-847.5 920.5,-759.5 920.5,-759.5 920.5,-753.5 926.5,-747.5 932.5,-747.5"/>
<text text-anchor="middle" x="981.5" y="-847.5" font-family="Arial" font-size="10.00">AchizitieMedicamente</text>
<polyline fill="none" stroke="#2c5e8a" points="920.5,-840.5 1042.5,-840.5 "/>
<text text-anchor="start" x="928.5" y="-828.5" font-family="Arial" font-size="10.00">&#45; idAchizitie : int</text>
<text text-anchor="start" x="928.5" y="-817.5" font-family="Arial" font-size="10.00">&#45; idPacient : int</text>
<text text-anchor="start" x="928.5" y="-806.5" font-family="Arial" font-size="10.00">&#45; idMedicament : int</text>
<text text-anchor="start" x="928.5" y="-795.5" font-family="Arial" font-size="10.00">&#45; cantitate : int</text>
<text text-anchor="start" x="928.5" y="-784.5" font-family="Arial" font-size="10.00">&#45; pretTotal : double</text>
<text text-anchor="start" x="928.5" y="-773.5" font-family="Arial" font-size="10.00">&#45; idReteta : int</text>
<polyline fill="none" stroke="#2c5e8a" points="920.5,-766.5 1042.5,-766.5 "/>
<text text-anchor="start" x="928.5" y="-754.5" font-family="Arial" font-size="10.00">+ getPretTotal() : double</text>
</g>
<!-- Achizitie&#45;&gt;Pacient -->
<g id="edge23" class="edge">
<title>Achizitie&#45;&gt;Pacient</title>
<path fill="none" stroke="#333333" d="M942,-747.21C942,-713.05 942,-676 942,-676 942,-676 580.14,-676 580.14,-676"/>
<polygon fill="#333333" stroke="#333333" points="572.14,-676 580.14,-672.4 576.14,-676 580.14,-676 580.14,-676 580.14,-676 576.14,-676 580.14,-679.6 572.14,-676 572.14,-676"/>
<text text-anchor="middle" x="821" y="-714.8" font-family="Arial" font-size="9.00">pentru</text>
</g>
<!-- Achizitie&#45;&gt;Reteta -->
<g id="edge24" class="edge">
<title>Achizitie&#45;&gt;Reteta</title>
<path fill="none" stroke="#333333" stroke-dasharray="5,2" d="M920.15,-752C908.57,-752 900,-752 900,-752 900,-752 900,-315.54 900,-315.54"/>
<polygon fill="#333333" stroke="#333333" points="900,-307.54 903.6,-315.54 900,-311.54 900,-315.54 900,-315.54 900,-315.54 900,-311.54 896.4,-315.54 900,-307.54 900,-307.54"/>
<text text-anchor="middle" x="966.5" y="-530.8" font-family="Arial" font-size="9.00">opțional</text>
</g>
<!-- Achizitie&#45;&gt;Medicament -->
<g id="edge22" class="edge">
<title>Achizitie&#45;&gt;Medicament</title>
<path fill="none" stroke="#333333" d="M1016.17,-747.46C1016.17,-747.46 1016.17,-131.75 1016.17,-131.75"/>
<polygon fill="#333333" stroke="#333333" points="1016.17,-123.75 1019.77,-131.75 1016.17,-127.75 1016.17,-131.75 1016.17,-131.75 1016.17,-131.75 1016.17,-127.75 1012.57,-131.75 1016.17,-123.75 1016.17,-123.75"/>
<text text-anchor="middle" x="1062" y="-433.3" font-family="Arial" font-size="9.00">vinde</text>
</g>
<!-- Farmacie -->
<g id="node12" class="node">
<title>Farmacie</title>
<path fill="#f7fbff" stroke="#2c5e8a" d="M979.5,-931.5C979.5,-931.5 1093.5,-931.5 1093.5,-931.5 1099.5,-931.5 1105.5,-937.5 1105.5,-943.5 1105.5,-943.5 1105.5,-1009.5 1105.5,-1009.5 1105.5,-1015.5 1099.5,-1021.5 1093.5,-1021.5 1093.5,-1021.5 979.5,-1021.5 979.5,-1021.5 973.5,-1021.5 967.5,-1015.5 967.5,-1009.5 967.5,-1009.5 967.5,-943.5 967.5,-943.5 967.5,-937.5 973.5,-931.5 979.5,-931.5"/>
<text text-anchor="middle" x="1036.5" y="-1009.5" font-family="Arial" font-size="10.00">Farmacie</text>
<polyline fill="none" stroke="#2c5e8a" points="967.5,-1002.5 1105.5,-1002.5 "/>
<text text-anchor="middle" x="1036.5" y="-990.5" font-family="Arial" font-size="10.00"> </text>
<polyline fill="none" stroke="#2c5e8a" points="967.5,-983.5 1105.5,-983.5 "/>
<text text-anchor="start" x="975.5" y="-971.5" font-family="Arial" font-size="10.00">+ adaugaMedicament()</text>
<text text-anchor="start" x="975.5" y="-960.5" font-family="Arial" font-size="10.00">+ vindeMedicament()</text>
<text text-anchor="start" x="975.5" y="-949.5" font-family="Arial" font-size="10.00">+ calculeazaValoareStoc()</text>
<text text-anchor="start" x="975.5" y="-938.5" font-family="Arial" font-size="10.00">+ exportMedicamenteJson()</text>
</g>
<!-- Farmacie&#45;&gt;Medicament -->
<g id="edge20" class="edge">
<title>Farmacie&#45;&gt;Medicament</title>
<path fill="none" stroke="#333333" d="M1074,-931.46C1074,-931.46 1074,-133.25 1074,-133.25"/>
<polygon fill="#333333" stroke="#333333" points="1074,-133.25 1070.8,-128.45 1074,-123.65 1077.2,-128.45 1074,-133.25"/>
<text text-anchor="middle" x="1160" y="-530.8" font-family="Arial" font-size="9.00">gestionează</text>
</g>
<!-- Farmacie&#45;&gt;Achizitie -->
<g id="edge21" class="edge">
<title>Farmacie&#45;&gt;Achizitie</title>
<path fill="none" stroke="#333333" d="M1005,-931.5C1005,-931.5 1005,-867.74 1005,-867.74"/>
<polygon fill="#333333" stroke="#333333" points="1005,-859.74 1008.6,-867.74 1005,-863.74 1005,-867.74 1005,-867.74 1005,-867.74 1005,-863.74 1001.4,-867.74 1005,-859.74 1005,-859.74"/>
<text text-anchor="middle" x="1060.5" y="-887.8" font-family="Arial" font-size="9.00">înregistrează</text>
</g>
<!-- Utilizator -->
<g id="node15" class="node">
<title>Utilizator</title>
<path fill="#f7fbff" stroke="#2c5e8a" d="M1207.5,-764C1207.5,-764 1281.5,-764 1281.5,-764 1287.5,-764 1293.5,-770 1293.5,-776 1293.5,-776 1293.5,-831 1293.5,-831 1293.5,-837 1287.5,-843 1281.5,-843 1281.5,-843 1207.5,-843 1207.5,-843 1201.5,-843 1195.5,-837 1195.5,-831 1195.5,-831 1195.5,-776 1195.5,-776 1195.5,-770 1201.5,-764 1207.5,-764"/>
<text text-anchor="middle" x="1244.5" y="-831" font-family="Arial" font-size="10.00">Utilizator</text>
<polyline fill="none" stroke="#2c5e8a" points="1195.5,-824 1293.5,-824 "/>
<text text-anchor="start" x="1203.5" y="-812" font-family="Arial" font-size="10.00">&#45; username : string</text>
<text text-anchor="start" x="1203.5" y="-801" font-family="Arial" font-size="10.00">&#45; parola : string</text>
<text text-anchor="start" x="1203.5" y="-790" font-family="Arial" font-size="10.00">&#45; rol : string</text>
<polyline fill="none" stroke="#2c5e8a" points="1195.5,-783 1293.5,-783 "/>
<text text-anchor="start" x="1203.5" y="-771" font-family="Arial" font-size="10.00">+ getRol() : string</text>
</g>
<!-- AuthService -->
<g id="node16" class="node">
<title>AuthService</title>
<path fill="#f7fbff" stroke="#2c5e8a" d="M1182,-942.5C1182,-942.5 1307,-942.5 1307,-942.5 1313,-942.5 1319,-948.5 1319,-954.5 1319,-954.5 1319,-998.5 1319,-998.5 1319,-1004.5 1313,-1010.5 1307,-1010.5 1307,-1010.5 1182,-1010.5 1182,-1010.5 1176,-1010.5 1170,-1004.5 1170,-998.5 1170,-998.5 1170,-954.5 1170,-954.5 1170,-948.5 1176,-942.5 1182,-942.5"/>
<text text-anchor="middle" x="1244.5" y="-998.5" font-family="Arial" font-size="10.00">AuthService</text>
<polyline fill="none" stroke="#2c5e8a" points="1170,-991.5 1319,-991.5 "/>
<text text-anchor="start" x="1178" y="-979.5" font-family="Arial" font-size="10.00">&#45; utilizatori : vector&lt;Utilizator&gt;</text>
<polyline fill="none" stroke="#2c5e8a" points="1170,-972.5 1319,-972.5 "/>
<text text-anchor="start" x="1178" y="-960.5" font-family="Arial" font-size="10.00">+ login() : string</text>
<text text-anchor="start" x="1178" y="-949.5" font-family="Arial" font-size="10.00">+ hasPermission() : bool</text>
</g>
<!-- AuthService&#45;&gt;Utilizator -->
<g id="edge25" class="edge">
<title>AuthService&#45;&gt;Utilizator</title>
<path fill="none" stroke="#333333" d="M1244.5,-942.32C1244.5,-942.32 1244.5,-852.66 1244.5,-852.66"/>
<polygon fill="#333333" stroke="#333333" points="1244.5,-852.66 1241.3,-847.86 1244.5,-843.06 1247.7,-847.86 1244.5,-852.66"/>
<text text-anchor="middle" x="1259.5" y="-887.8" font-family="Arial" font-size="9.00">verifică</text>
</g>
<!-- DataManager -->
<g id="node17" class="node">
<title>DataManager</title>
<path fill="#f7fbff" stroke="#2c5e8a" d="M492.5,-758.5C492.5,-758.5 574.5,-758.5 574.5,-758.5 580.5,-758.5 586.5,-764.5 586.5,-770.5 586.5,-770.5 586.5,-836.5 586.5,-836.5 586.5,-842.5 580.5,-848.5 574.5,-848.5 574.5,-848.5 492.5,-848.5 492.5,-848.5 486.5,-848.5 480.5,-842.5 480.5,-836.5 480.5,-836.5 480.5,-770.5 480.5,-770.5 480.5,-764.5 486.5,-758.5 492.5,-758.5"/>
<text text-anchor="middle" x="533.5" y="-836.5" font-family="Arial" font-size="10.00">DataManager</text>
<polyline fill="none" stroke="#2c5e8a" points="480.5,-829.5 586.5,-829.5 "/>
<text text-anchor="middle" x="533.5" y="-817.5" font-family="Arial" font-size="10.00"> </text>
<polyline fill="none" stroke="#2c5e8a" points="480.5,-810.5 586.5,-810.5 "/>
<text text-anchor="start" x="488.5" y="-798.5" font-family="Arial" font-size="10.00">+ salveazaPacienti()</text>
<text text-anchor="start" x="488.5" y="-787.5" font-family="Arial" font-size="10.00">+ salveazaMedici()</text>
<text text-anchor="start" x="488.5" y="-776.5" font-family="Arial" font-size="10.00">+ salveazaFacturi()</text>
<text text-anchor="start" x="488.5" y="-765.5" font-family="Arial" font-size="10.00">+ salveazaTot()</text>
</g>
<!-- DataManager&#45;&gt;Pacient -->
<g id="edge26" class="edge">
<title>DataManager&#45;&gt;Pacient</title>
<path fill="none" stroke="#333333" stroke-dasharray="5,2" d="M526.25,-758.46C526.25,-758.46 526.25,-694.55 526.25,-694.55"/>
<polygon fill="#333333" stroke="#333333" points="526.25,-686.55 529.85,-694.55 526.25,-690.55 526.25,-694.55 526.25,-694.55 526.25,-694.55 526.25,-690.55 522.65,-694.55 526.25,-686.55 526.25,-686.55"/>
<text text-anchor="middle" x="555.5" y="-714.8" font-family="Arial" font-size="9.00">salvează JSON</text>
</g>
<!-- DataManager&#45;&gt;Medic -->
<g id="edge27" class="edge">
<title>DataManager&#45;&gt;Medic</title>
<path fill="none" stroke="#333333" stroke-dasharray="5,2" d="M480.28,-788C418.11,-788 323.67,-788 323.67,-788 323.67,-788 323.67,-678.4 323.67,-678.4"/>
<polygon fill="#333333" stroke="#333333" points="323.67,-670.4 327.27,-678.4 323.67,-674.4 323.67,-678.4 323.67,-678.4 323.67,-678.4 323.67,-674.4 320.07,-678.4 323.67,-670.4 323.67,-670.4"/>
</g>
<!-- DataManager&#45;&gt;Factura -->
<g id="edge28" class="edge">
<title>DataManager&#45;&gt;Factura</title>
<path fill="none" stroke="#333333" stroke-dasharray="5,2" d="M586.72,-803C630.6,-803 685.67,-803 685.67,-803 685.67,-803 685.67,-510.91 685.67,-510.91"/>
<polygon fill="#333333" stroke="#333333" points="685.67,-502.91 689.27,-510.91 685.67,-506.91 685.67,-510.91 685.67,-510.91 685.67,-510.91 685.67,-506.91 682.07,-510.91 685.67,-502.91 685.67,-502.91"/>
</g>
<!-- FacturaFactory -->
<g id="node18" class="node">
<title>FacturaFactory</title>
<path fill="#f7fbff" stroke="#2c5e8a" d="M725,-585.5C725,-585.5 876,-585.5 876,-585.5 882,-585.5 888,-591.5 888,-597.5 888,-597.5 888,-652.5 888,-652.5 888,-658.5 882,-664.5 876,-664.5 876,-664.5 725,-664.5 725,-664.5 719,-664.5 713,-658.5 713,-652.5 713,-652.5 713,-597.5 713,-597.5 713,-591.5 719,-585.5 725,-585.5"/>
<text text-anchor="middle" x="800.5" y="-652.5" font-family="Arial" font-size="10.00">FacturaFactory</text>
<polyline fill="none" stroke="#2c5e8a" points="713,-645.5 888,-645.5 "/>
<text text-anchor="middle" x="800.5" y="-633.5" font-family="Arial" font-size="10.00"> </text>
<polyline fill="none" stroke="#2c5e8a" points="713,-626.5 888,-626.5 "/>
<text text-anchor="start" x="721" y="-614.5" font-family="Arial" font-size="10.00">+ facturaSimpla() : Factura</text>
<text text-anchor="start" x="721" y="-603.5" font-family="Arial" font-size="10.00">+ facturaCuInternare() : Factura</text>
<text text-anchor="start" x="721" y="-592.5" font-family="Arial" font-size="10.00">+ facturaCuMedicamente() : Factura</text>
</g>
<!-- FacturaFactory&#45;&gt;Factura -->
<g id="edge29" class="edge">
<title>FacturaFactory&#45;&gt;Factura</title>
<path fill="none" stroke="#333333" stroke-dasharray="5,2" d="M740.5,-585.27C740.5,-585.27 740.5,-510.78 740.5,-510.78"/>
<polygon fill="#333333" stroke="#333333" points="740.5,-502.78 744.1,-510.78 740.5,-506.78 740.5,-510.78 740.5,-510.78 740.5,-510.78 740.5,-506.78 736.9,-510.78 740.5,-502.78 740.5,-502.78"/>
<text text-anchor="middle" x="805.5" y="-530.8" font-family="Arial" font-size="9.00">creează</text>
</g>
<!-- ServiciuMedical -->
<g id="node19" class="node">
<title>ServiciuMedical</title>
<path fill="#fff9e8" stroke="#b08a00" d="M1611,-937C1611,-937 1724,-937 1724,-937 1730,-937 1736,-943 1736,-949 1736,-949 1736,-1004 1736,-1004 1736,-1010 1730,-1016 1724,-1016 1724,-1016 1611,-1016 1611,-1016 1605,-1016 1599,-1010 1599,-1004 1599,-1004 1599,-949 1599,-949 1599,-943 1605,-937 1611,-937"/>
<text text-anchor="middle" x="1667.5" y="-1004" font-family="Arial" font-size="10.00">&lt;&lt;interface&gt;&gt;</text>
<text text-anchor="middle" x="1667.5" y="-993" font-family="Arial" font-size="10.00">ServiciuMedical</text>
<polyline fill="none" stroke="#b08a00" points="1599,-986 1736,-986 "/>
<text text-anchor="middle" x="1667.5" y="-974" font-family="Arial" font-size="10.00"> </text>
<polyline fill="none" stroke="#b08a00" points="1599,-967 1736,-967 "/>
<text text-anchor="start" x="1607" y="-955" font-family="Arial" font-size="10.00">+ calculeazaCost() : double</text>
<text text-anchor="start" x="1607" y="-944" font-family="Arial" font-size="10.00">+ getDenumire() : string</text>
</g>
<!-- Consultatie -->
<g id="node20" class="node">
<title>Consultatie</title>
<path fill="#f7fbff" stroke="#2c5e8a" d="M1346,-775C1346,-775 1459,-775 1459,-775 1465,-775 1471,-781 1471,-787 1471,-787 1471,-820 1471,-820 1471,-826 1465,-832 1459,-832 1459,-832 1346,-832 1346,-832 1340,-832 1334,-826 1334,-820 1334,-820 1334,-787 1334,-787 1334,-781 1340,-775 1346,-775"/>
<text text-anchor="middle" x="1402.5" y="-820" font-family="Arial" font-size="10.00">Consultatie</text>
<polyline fill="none" stroke="#2c5e8a" points="1334,-813 1471,-813 "/>
<text text-anchor="start" x="1342" y="-801" font-family="Arial" font-size="10.00">&#45; tarif : double</text>
<polyline fill="none" stroke="#2c5e8a" points="1334,-794 1471,-794 "/>
<text text-anchor="start" x="1342" y="-782" font-family="Arial" font-size="10.00">+ calculeazaCost() : double</text>
</g>
<!-- ServiciuMedical&#45;&gt;Consultatie -->
<g id="edge5" class="edge">
<title>ServiciuMedical&#45;&gt;Consultatie</title>
<path fill="none" stroke="#333333" stroke-dasharray="5,2" d="M1598.91,-976C1520.39,-976 1402.5,-976 1402.5,-976 1402.5,-976 1402.5,-840.37 1402.5,-840.37"/>
<polygon fill="none" stroke="#333333" points="1405.3,-840.37 1402.5,-832.37 1399.7,-840.37 1405.3,-840.37"/>
<text text-anchor="middle" x="1431" y="-887.8" font-family="Arial" font-size="9.00">implementare</text>
</g>
<!-- Analize -->
<g id="node21" class="node">
<title>Analize</title>
<path fill="#f7fbff" stroke="#2c5e8a" d="M1523,-775C1523,-775 1636,-775 1636,-775 1642,-775 1648,-781 1648,-787 1648,-787 1648,-820 1648,-820 1648,-826 1642,-832 1636,-832 1636,-832 1523,-832 1523,-832 1517,-832 1511,-826 1511,-820 1511,-820 1511,-787 1511,-787 1511,-781 1517,-775 1523,-775"/>
<text text-anchor="middle" x="1579.5" y="-820" font-family="Arial" font-size="10.00">Analize</text>
<polyline fill="none" stroke="#2c5e8a" points="1511,-813 1648,-813 "/>
<text text-anchor="start" x="1519" y="-801" font-family="Arial" font-size="10.00">&#45; numarAnalize : int</text>
<polyline fill="none" stroke="#2c5e8a" points="1511,-794 1648,-794 "/>
<text text-anchor="start" x="1519" y="-782" font-family="Arial" font-size="10.00">+ calculeazaCost() : double</text>
</g>
<!-- ServiciuMedical&#45;&gt;Analize -->
<g id="edge6" class="edge">
<title>ServiciuMedical&#45;&gt;Analize</title>
<path fill="none" stroke="#333333" stroke-dasharray="5,2" d="M1623.5,-936.81C1623.5,-936.81 1623.5,-840.21 1623.5,-840.21"/>
<polygon fill="none" stroke="#333333" points="1626.3,-840.21 1623.5,-832.21 1620.7,-840.21 1626.3,-840.21"/>
</g>
<!-- InternareServiciu -->
<g id="node22" class="node">
<title>InternareServiciu</title>
<path fill="#f7fbff" stroke="#2c5e8a" d="M1700,-769.5C1700,-769.5 1813,-769.5 1813,-769.5 1819,-769.5 1825,-775.5 1825,-781.5 1825,-781.5 1825,-825.5 1825,-825.5 1825,-831.5 1819,-837.5 1813,-837.5 1813,-837.5 1700,-837.5 1700,-837.5 1694,-837.5 1688,-831.5 1688,-825.5 1688,-825.5 1688,-781.5 1688,-781.5 1688,-775.5 1694,-769.5 1700,-769.5"/>
<text text-anchor="middle" x="1756.5" y="-825.5" font-family="Arial" font-size="10.00">InternareServiciu</text>
<polyline fill="none" stroke="#2c5e8a" points="1688,-818.5 1825,-818.5 "/>
<text text-anchor="start" x="1696" y="-806.5" font-family="Arial" font-size="10.00">&#45; zile : int</text>
<text text-anchor="start" x="1696" y="-795.5" font-family="Arial" font-size="10.00">&#45; costPeZi : double</text>
<polyline fill="none" stroke="#2c5e8a" points="1688,-788.5 1825,-788.5 "/>
<text text-anchor="start" x="1696" y="-776.5" font-family="Arial" font-size="10.00">+ calculeazaCost() : double</text>
</g>
<!-- ServiciuMedical&#45;&gt;InternareServiciu -->
<g id="edge7" class="edge">
<title>ServiciuMedical&#45;&gt;InternareServiciu</title>
<path fill="none" stroke="#333333" stroke-dasharray="5,2" d="M1712,-936.81C1712,-936.81 1712,-845.75 1712,-845.75"/>
<polygon fill="none" stroke="#333333" points="1714.8,-845.75 1712,-837.75 1709.2,-845.75 1714.8,-845.75"/>
</g>
<!-- Operatie -->
<g id="node23" class="node">
<title>Operatie</title>
<path fill="#f7fbff" stroke="#2c5e8a" d="M1877,-769.5C1877,-769.5 1990,-769.5 1990,-769.5 1996,-769.5 2002,-775.5 2002,-781.5 2002,-781.5 2002,-825.5 2002,-825.5 2002,-831.5 1996,-837.5 1990,-837.5 1990,-837.5 1877,-837.5 1877,-837.5 1871,-837.5 1865,-831.5 1865,-825.5 1865,-825.5 1865,-781.5 1865,-781.5 1865,-775.5 1871,-769.5 1877,-769.5"/>
<text text-anchor="middle" x="1933.5" y="-825.5" font-family="Arial" font-size="10.00">Operatie</text>
<polyline fill="none" stroke="#2c5e8a" points="1865,-818.5 2002,-818.5 "/>
<text text-anchor="start" x="1873" y="-806.5" font-family="Arial" font-size="10.00">&#45; costBaza : double</text>
<text text-anchor="start" x="1873" y="-795.5" font-family="Arial" font-size="10.00">&#45; urgenta : bool</text>
<polyline fill="none" stroke="#2c5e8a" points="1865,-788.5 2002,-788.5 "/>
<text text-anchor="start" x="1873" y="-776.5" font-family="Arial" font-size="10.00">+ calculeazaCost() : double</text>
</g>
<!-- ServiciuMedical&#45;&gt;Operatie -->
<g id="edge8" class="edge">
<title>ServiciuMedical&#45;&gt;Operatie</title>
<path fill="none" stroke="#333333" stroke-dasharray="5,2" d="M1736,-976C1814.82,-976 1933.5,-976 1933.5,-976 1933.5,-976 1933.5,-845.58 1933.5,-845.58"/>
<polygon fill="none" stroke="#333333" points="1936.3,-845.58 1933.5,-837.58 1930.7,-845.58 1936.3,-845.58"/>
</g>
</g>
</svg>
